<svg width="30" height="30" viewBox="0 0 30 30" fill="none" xmlns="http://www.w3.org/2000/svg">
<path fill-rule="evenodd" clip-rule="evenodd" d="M11.9877 7.66679C10.3376 7.66679 9 9.0044 9 10.6544V15.0001V19.3458C9 20.9958 10.3376 22.3335 11.9877 22.3335H16.0114C17.2285 22.3335 18.4198 21.9352 19.3189 21.1921C20.2224 20.4453 20.7695 19.3954 20.7695 18.2594C20.7695 17.1233 20.2224 16.0735 19.3189 15.3267C18.9697 15.038 18.5763 14.8014 18.1546 14.62C19 13.8725 19.5021 12.8436 19.5021 11.7409C19.5021 10.6163 18.9798 9.56844 18.1038 8.81756C17.2317 8.07001 16.0722 7.66679 14.8848 7.66679H11.9877ZM14.8879 15.8149C14.8869 15.8149 14.8858 15.8149 14.8848 15.8149L10.6296 15.8149V19.3458C10.6296 20.0958 11.2376 20.7038 11.9877 20.7038H16.0114C16.8861 20.7038 17.7007 20.4153 18.2807 19.936C18.8562 19.4603 19.1399 18.8521 19.1399 18.2594C19.1399 17.6666 18.8562 17.0585 18.2807 16.5828C17.7007 16.1034 16.8861 15.8149 16.0114 15.8149H14.8879ZM14.8866 14.1853C15.7154 14.1849 16.4896 13.9014 17.0433 13.4269C17.5934 12.9553 17.8724 12.3451 17.8724 11.7409C17.8724 11.1366 17.5934 10.5264 17.0433 10.0549C16.4892 9.57996 15.7143 9.29642 14.8848 9.29642H11.9877C11.2376 9.29642 10.6296 9.90442 10.6296 10.6544V14.1853H14.8848C14.8854 14.1853 14.886 14.1853 14.8866 14.1853Z" fill="white"/>
</svg>
