<svg width="30" height="30" viewBox="0 0 30 30" fill="none" xmlns="http://www.w3.org/2000/svg">
<path fill-rule="evenodd" clip-rule="evenodd" d="M15.7502 9.29646C14.5872 9.29646 13.4414 9.44035 12.2808 9.59302C11.6562 9.67519 11.1627 10.1844 11.1012 10.8067C10.9644 12.1913 10.8285 13.5818 10.8285 15.0003C10.8285 15.4504 10.4637 15.8152 10.0137 15.8152C9.56363 15.8152 9.19881 15.4504 9.19881 15.0003C9.19881 13.4891 9.34367 12.0205 9.47943 10.6464C9.61584 9.26574 10.6974 8.15757 12.0683 7.97723C13.2208 7.82562 14.4662 7.66675 15.7502 7.66675C16.4087 7.66675 17.0536 7.70833 17.6795 7.76889C20.0879 8.00188 21.9888 10.0032 22.1826 12.3901C22.2513 13.2364 22.3015 14.1092 22.3015 15.0003C22.3015 16.5116 22.1566 17.9802 22.0209 19.3543C21.8845 20.735 20.8029 21.8431 19.4321 22.0235C18.9408 22.0881 18.4329 22.1539 17.9165 22.2079C17.4689 22.2548 17.0681 21.9299 17.0212 21.4823C16.9744 21.0347 17.2992 20.6339 17.7468 20.5871C18.2395 20.5355 18.7282 20.4723 19.2195 20.4077C19.8442 20.3255 20.3376 19.8163 20.3991 19.194C20.5359 17.8094 20.6718 16.4189 20.6718 15.0003C20.6718 14.1689 20.6249 13.3435 20.5582 12.522C20.4263 10.8967 19.121 9.54566 17.5226 9.39103C16.9311 9.33381 16.3411 9.29646 15.7502 9.29646ZM13.1862 17.2144C13.4765 16.8705 13.9906 16.827 14.3345 17.1173L14.3367 17.1192L14.3411 17.1229L14.3565 17.136C14.3695 17.1471 14.3879 17.163 14.411 17.1831C14.4572 17.2233 14.5223 17.2806 14.6001 17.351C14.7547 17.4909 14.9635 17.686 15.1747 17.9026C15.3824 18.1157 15.6096 18.3671 15.7903 18.6183C15.8807 18.7438 15.9717 18.8861 16.043 19.0369C16.1093 19.1774 16.1883 19.3865 16.1883 19.6295C16.1883 19.8724 16.1093 20.0815 16.043 20.222C15.9717 20.3728 15.8807 20.5151 15.7903 20.6406C15.6096 20.8918 15.3824 21.1432 15.1747 21.3563C14.9635 21.5729 14.7547 21.7681 14.6001 21.9079C14.5223 21.9783 14.4572 22.0356 14.411 22.0758C14.3879 22.0959 14.3695 22.1118 14.3565 22.1229L14.3411 22.136L14.3367 22.1398L14.3353 22.1409L13.8089 21.5189C14.3345 22.1416 14.3353 22.141 14.3353 22.1409C13.9914 22.4312 13.4765 22.3884 13.1862 22.0446C12.896 21.7007 12.9394 21.1868 13.2831 20.8965L13.2857 20.8943L13.2965 20.885L13.3413 20.8464C13.3806 20.8121 13.4378 20.7618 13.5067 20.6994C13.6454 20.5739 13.8277 20.4033 14.0076 20.2187C14.1911 20.0306 14.355 19.8451 14.4676 19.6887C14.4831 19.6671 14.4967 19.6474 14.5086 19.6295C14.4967 19.6115 14.4831 19.5918 14.4676 19.5702C14.355 19.4138 14.1911 19.2284 14.0076 19.0402C13.8277 18.8556 13.6454 18.685 13.5067 18.5595C13.4378 18.4971 13.3806 18.4468 13.3413 18.4126L13.2965 18.3739L13.2857 18.3646L13.2834 18.3627C12.9396 18.0724 12.896 17.5582 13.1862 17.2144ZM9.55222 17.1173C9.89611 16.827 10.4102 16.8705 10.7005 17.2144C10.9908 17.5582 10.9472 18.0724 10.6034 18.3627L10.6011 18.3646L10.5903 18.3739L10.5455 18.4126C10.5061 18.4468 10.449 18.4971 10.3801 18.5595C10.2414 18.685 10.059 18.8556 9.87911 19.0402C9.69569 19.2284 9.53179 19.4138 9.41918 19.5702C9.40365 19.5918 9.39004 19.6115 9.37817 19.6295C9.39004 19.6474 9.40365 19.6671 9.41918 19.6887C9.53179 19.8451 9.69569 20.0306 9.87911 20.2187C10.059 20.4033 10.2414 20.5739 10.3801 20.6994C10.449 20.7618 10.5061 20.8121 10.5455 20.8464L10.5903 20.885L10.6011 20.8943L10.6037 20.8965C10.9474 21.1868 10.9907 21.7007 10.7005 22.0446C10.4102 22.3884 9.8953 22.4312 9.55141 22.1409C9.55149 22.141 9.55222 22.1416 10.0778 21.5189L9.55141 22.1409L9.55004 22.1398L9.54561 22.136L9.53028 22.1229C9.51729 22.1118 9.49885 22.0959 9.47573 22.0758C9.42954 22.0356 9.36445 21.9783 9.2867 21.9079C9.13207 21.7681 8.92326 21.5729 8.71207 21.3563C8.50437 21.1432 8.27714 20.8918 8.09641 20.6406C8.00608 20.5151 7.91502 20.3728 7.8438 20.222C7.7774 20.0815 7.69849 19.8724 7.69849 19.6295C7.69849 19.3865 7.7774 19.1774 7.8438 19.0369C7.91502 18.8861 8.00608 18.7438 8.09641 18.6183C8.27714 18.3671 8.50437 18.1157 8.71207 17.9026C8.92326 17.686 9.13207 17.4909 9.2867 17.351C9.36445 17.2806 9.42954 17.2233 9.47573 17.1831C9.49885 17.163 9.51729 17.1471 9.53028 17.136L9.54561 17.1229L9.55004 17.1192L9.55222 17.1173ZM10.0778 17.74C9.55222 17.1173 9.5523 17.1172 9.55222 17.1173L10.0778 17.74Z" fill="white"/>
</svg>
