<svg width="30" height="30" viewBox="0 0 30 30" fill="none" xmlns="http://www.w3.org/2000/svg">
<path fill-rule="evenodd" clip-rule="evenodd" d="M9.68248 11.5895C9.68248 9.36232 11.6674 7.66679 14.6206 7.66679C16.4095 7.66679 18.2111 8.2295 19.2492 9.18449L19.2526 9.1876C19.3805 9.30126 19.4484 9.48468 19.4484 9.66894C19.4484 10.0633 19.092 10.4128 18.6825 10.4128C18.5394 10.4128 18.3766 10.3638 18.2494 10.2684L18.2473 10.2668C17.1152 9.43508 15.7773 9.04413 14.444 9.04413C13.5718 9.04413 12.8142 9.27072 12.2677 9.68753C11.7159 10.1084 11.391 10.7163 11.391 11.435C11.391 12.3688 12.0722 12.894 12.9085 13.2492C13.5011 13.5009 14.2407 13.696 14.998 13.8957C15.3036 13.9763 15.6121 14.0576 15.915 14.1438C16.2528 14.2399 16.5865 14.3425 16.9089 14.4569H21.6236C22.0156 14.4569 22.3333 14.8217 22.3333 15.2717C22.3333 15.7217 22.0156 16.0865 21.6236 16.0865H8.3763C7.98436 16.0865 7.66663 15.7217 7.66663 15.2717C7.66663 14.8217 7.98436 14.4569 8.3763 14.4569H11.3251C11.1858 14.3735 11.0527 14.2845 10.927 14.1893C10.1793 13.6231 9.68248 12.8293 9.68248 11.5895ZM19.3353 17.487C19.7103 17.487 20.0393 17.7675 20.0443 18.1425L20.0445 18.1679C20.0445 19.2523 19.6704 20.2845 18.8408 21.0475C18.0101 21.8116 16.6921 22.3335 14.7531 22.3335C12.6467 22.3335 10.7606 21.6242 9.67429 20.5637C9.54566 20.4159 9.48381 20.2399 9.48381 20.0664C9.48381 19.634 9.81042 19.2563 10.2277 19.2563C10.3744 19.2563 10.5544 19.307 10.677 19.3964C11.7323 20.2887 13.1588 20.9561 14.8414 20.9561C16.0804 20.9561 16.956 20.6286 17.5258 20.1301C18.0961 19.6311 18.336 18.9809 18.336 18.3887C18.336 17.9613 18.6358 17.487 19.0632 17.487H19.3353Z" fill="white"/>
</svg>
