<svg width="30" height="30" viewBox="0 0 30 30" fill="none" xmlns="http://www.w3.org/2000/svg">
<path fill-rule="evenodd" clip-rule="evenodd" d="M8.88885 9.00012C9.56386 9.00012 10.1111 9.54733 10.1111 10.2223C10.1111 10.8974 9.56386 11.4446 8.88885 11.4446C8.21383 11.4446 7.66663 10.8974 7.66663 10.2223C7.66663 9.54733 8.21383 9.00012 8.88885 9.00012ZM8.88885 13.889C9.56386 13.889 10.1111 14.4362 10.1111 15.1112C10.1111 15.7862 9.56386 16.3335 8.88885 16.3335C8.21383 16.3335 7.66663 15.7862 7.66663 15.1112C7.66663 14.4362 8.21383 13.889 8.88885 13.889ZM10.1111 20.0001C10.1111 19.3251 9.56386 18.7779 8.88885 18.7779C8.21383 18.7779 7.66663 19.3251 7.66663 20.0001C7.66663 20.6751 8.21383 21.2223 8.88885 21.2223C9.56386 21.2223 10.1111 20.6751 10.1111 20.0001ZM22.3333 20.0001C22.3333 19.3251 21.7861 18.7779 21.1111 18.7779H13.7777C13.1027 18.7779 12.5555 19.3251 12.5555 20.0001C12.5555 20.6751 13.1027 21.2223 13.7777 21.2223H21.1111C21.7861 21.2223 22.3333 20.6751 22.3333 20.0001ZM22.3333 15.1112C22.3333 14.4362 21.7861 13.889 21.1111 13.889H13.7777C13.1027 13.889 12.5555 14.4362 12.5555 15.1112C12.5555 15.7862 13.1027 16.3335 13.7777 16.3335H21.1111C21.7861 16.3335 22.3333 15.7862 22.3333 15.1112ZM22.3333 10.2223C22.3333 9.54733 21.7861 9.00012 21.1111 9.00012H13.7777C13.1027 9.00012 12.5555 9.54733 12.5555 10.2223C12.5555 10.8974 13.1027 11.4446 13.7777 11.4446H21.1111C21.7861 11.4446 22.3333 10.8974 22.3333 10.2223Z" fill="white"/>
</svg>
