<svg width="30" height="30" viewBox="0 0 30 30" fill="none" xmlns="http://www.w3.org/2000/svg">
<path fill-rule="evenodd" clip-rule="evenodd" d="M8.88885 8.72234C8.21383 8.72234 7.66663 9.26954 7.66663 9.94456V19.9584C7.66663 20.6334 8.21383 21.1806 8.88885 21.1806C9.56386 21.1806 10.1111 20.6334 10.1111 19.9584V9.94456C10.1111 9.26954 9.56386 8.72234 8.88885 8.72234ZM18.7061 8.889C19.3811 8.889 19.9283 9.43621 19.9283 10.1112C19.9283 10.7862 19.3811 11.3334 18.7061 11.3334H13.7755C13.1005 11.3334 12.5533 10.7862 12.5533 10.1112C12.5533 9.43621 13.1005 8.889 13.7755 8.889H18.7061ZM22.3333 15.0001C22.3333 14.3251 21.7861 13.7779 21.1111 13.7779H13.7777C13.1027 13.7779 12.5555 14.3251 12.5555 15.0001C12.5555 15.6752 13.1027 16.2224 13.7777 16.2224H21.1111C21.7861 16.2224 22.3333 15.6752 22.3333 15.0001ZM21.368 19.889C21.368 19.214 20.8208 18.6668 20.1458 18.6668H13.7777C13.1027 18.6668 12.5555 19.214 12.5555 19.889C12.5555 20.564 13.1027 21.1112 13.7777 21.1112H20.1458C20.8208 21.1112 21.368 20.564 21.368 19.889Z" fill="white"/>
</svg>
