<svg width="30" height="30" viewBox="0 0 30 30" fill="none" xmlns="http://www.w3.org/2000/svg">
<path d="M13.8763 17.5805L15.3138 11.9475C15.3743 11.8072 15.486 11.6952 15.6262 11.6344C15.7664 11.5737 15.9246 11.5687 16.0683 11.6205C16.2121 11.6723 16.3307 11.7771 16.3998 11.9133C16.469 12.0496 16.4836 12.2071 16.4406 12.3537L16.4166 12.4197L14.9791 18.0527C14.9187 18.193 14.8069 18.305 14.6667 18.3658C14.5265 18.4265 14.3684 18.4315 14.2246 18.3797C14.0808 18.3279 13.9623 18.2231 13.8931 18.0869C13.8239 17.9506 13.8093 17.7931 13.8523 17.6465L13.8763 17.5805ZM7.84235 14.7538L10.2424 12.3538C10.3504 12.2462 10.4952 12.1837 10.6476 12.179C10.8 12.1744 10.9484 12.2279 11.0628 12.3287C11.1771 12.4295 11.2488 12.5701 11.2632 12.7219C11.2777 12.8736 11.2338 13.0252 11.1406 13.1458L11.0908 13.2022L9.11496 15.178L11.0908 17.1538C11.1995 17.2616 11.263 17.4068 11.2682 17.5598C11.2734 17.7128 11.2199 17.8619 11.1187 17.9768C11.0175 18.0916 10.8762 18.1635 10.7238 18.1776C10.5714 18.1917 10.4193 18.147 10.2988 18.0526L10.2424 18.0022L7.84235 15.6022C7.73904 15.4989 7.67698 15.3614 7.66781 15.2156C7.65864 15.0698 7.70299 14.9256 7.79254 14.8102L7.84235 14.7538ZM18.9091 12.3532C19.0124 12.2499 19.1499 12.1878 19.2957 12.1786C19.4415 12.1695 19.5857 12.2138 19.7011 12.3034L19.7569 12.3532L22.1576 14.7538C22.2609 14.8571 22.3229 14.9946 22.3321 15.1404C22.3413 15.2862 22.2969 15.4304 22.2074 15.5458L22.1576 15.6028L19.7569 17.9998C19.649 18.1075 19.5041 18.1699 19.3517 18.1746C19.1993 18.1792 19.0509 18.1257 18.9366 18.0249C18.8222 17.9241 18.7505 17.7835 18.7361 17.6318C18.7216 17.48 18.7655 17.3284 18.8587 17.2078L18.9091 17.1508L20.8838 15.178L18.9079 13.2016C18.7954 13.0891 18.7323 12.9365 18.7323 12.7774C18.7323 12.6183 18.7954 12.4657 18.9079 12.3532H18.9091Z" fill="white"/>
</svg>
