<svg width="30" height="30" viewBox="0 0 30 30" fill="none" xmlns="http://www.w3.org/2000/svg">
<path fill-rule="evenodd" clip-rule="evenodd" d="M10.8674 8.4816C10.8674 8.03159 11.2322 7.66679 11.6822 7.66679H19.2035C19.6536 7.66679 20.0184 8.03159 20.0184 8.4816C20.0184 8.93161 19.6536 9.29642 19.2035 9.29642H16.1541L15.1171 20.7038H18.0028C18.4528 20.7038 18.8176 21.0686 18.8176 21.5186C18.8176 21.9686 18.4528 22.3335 18.0028 22.3335H10.4814C10.0314 22.3335 9.66663 21.9686 9.66663 21.5186C9.66663 21.0686 10.0314 20.7038 10.4814 20.7038H13.4807L14.5178 9.29642H11.6822C11.2322 9.29642 10.8674 8.93161 10.8674 8.4816Z" fill="white"/>
</svg>
