<svg width="30" height="30" viewBox="0 0 30 30" fill="none" xmlns="http://www.w3.org/2000/svg">
<path fill-rule="evenodd" clip-rule="evenodd" d="M22.3333 10.1112C22.3333 9.43621 21.7861 8.889 21.1111 8.889H13.7777C13.1027 8.889 12.5555 9.43621 12.5555 10.1112C12.5555 10.7862 13.1027 11.3334 13.7777 11.3334H21.1111C21.7861 11.3334 22.3333 10.7862 22.3333 10.1112ZM21.1111 13.7779C21.7861 13.7779 22.3333 14.3251 22.3333 15.0001C22.3333 15.6752 21.7861 16.2224 21.1111 16.2224H13.7777C13.1027 16.2224 12.5555 15.6752 12.5555 15.0001C12.5555 14.3251 13.1027 13.7779 13.7777 13.7779H21.1111ZM21.1111 18.6668C21.7861 18.6668 22.3333 19.214 22.3333 19.889C22.3333 20.564 21.7861 21.1112 21.1111 21.1112H13.7777C13.1027 21.1112 12.5555 20.564 12.5555 19.889C12.5555 19.214 13.1027 18.6668 13.7777 18.6668H21.1111ZM7.74934 20.5348V19.6357L9.32916 18.215C9.43393 18.1206 9.52353 18.0322 9.59797 17.9497C9.67379 17.8658 9.73169 17.7796 9.77167 17.6912C9.81303 17.6028 9.83371 17.5046 9.83371 17.3967C9.83371 17.2784 9.81027 17.1772 9.7634 17.0933C9.71791 17.0094 9.65449 16.9449 9.57316 16.9C9.49183 16.8535 9.39808 16.8303 9.29194 16.8303C9.18579 16.8303 9.09205 16.8535 9.01071 16.9C8.93076 16.9464 8.86872 17.0146 8.82461 17.1045C8.78049 17.1944 8.75844 17.3038 8.75844 17.4327H7.66663C7.66663 17.109 7.73349 16.8303 7.8672 16.5965C8.00092 16.3627 8.18979 16.1829 8.43379 16.057C8.67779 15.9311 8.96384 15.8682 9.29194 15.8682C9.63106 15.8682 9.92469 15.9274 10.1728 16.0458C10.4223 16.1626 10.6147 16.3275 10.7498 16.5403C10.8862 16.7531 10.9545 17.0026 10.9545 17.2888C10.9545 17.4657 10.9207 17.6418 10.8531 17.8171C10.7856 17.9909 10.6643 18.1835 10.4892 18.3948C10.3141 18.6061 10.0653 18.8579 9.74272 19.1501L9.3457 19.5098V19.5368H11V20.5348H7.74934ZM9.91663 13.4307V9.43067H8.90875L7.91663 10.0322V10.9541L8.79852 10.4307H8.82214V13.4307H9.91663Z" fill="white"/>
</svg>
