<svg width="30" height="30" viewBox="0 0 30 30" fill="none" xmlns="http://www.w3.org/2000/svg">
<path d="M15.5287 20.47C15.7035 20.47 15.8679 20.4329 16.022 20.3587C16.1761 20.2845 16.3391 20.167 16.5111 20.0063L21.3485 15.4536C21.4621 15.3462 21.5435 15.228 21.5928 15.0992C21.642 14.9704 21.6666 14.849 21.6666 14.735C21.6666 14.6139 21.6422 14.4899 21.5935 14.3629C21.5447 14.236 21.4635 14.1187 21.35 14.0113L16.5111 9.50186C16.3193 9.3223 16.1528 9.19375 16.0114 9.11621C15.8701 9.03868 15.7134 8.99992 15.5415 8.99992C15.2829 8.99992 15.069 9.0887 14.8999 9.26628C14.7309 9.44387 14.6463 9.65771 14.6463 9.9078V12.0208H14.5131C13.0711 12.0208 11.8945 12.3172 10.9834 12.9102C10.0723 13.5031 9.40283 14.3388 8.97499 15.4175C8.54717 16.4961 8.33325 17.759 8.33325 19.2063C8.33325 19.6106 8.41074 19.9176 8.56571 20.1274C8.72069 20.3371 8.91015 20.442 9.1341 20.442C9.29789 20.442 9.45952 20.4064 9.619 20.3351C9.77849 20.2638 9.92301 20.1119 10.0526 19.8792C10.3825 19.2811 10.7572 18.8049 11.1765 18.4506C11.5958 18.0963 12.0792 17.8427 12.6265 17.6898C13.1738 17.5368 13.8027 17.4603 14.5131 17.4603H14.6463V19.6004C14.6463 19.8505 14.7309 20.0579 14.8999 20.2228C15.069 20.3876 15.2786 20.47 15.5287 20.47ZM15.9648 18.7331C15.9083 18.7331 15.88 18.7039 15.88 18.6455V16.4543C15.88 16.3128 15.8093 16.242 15.6678 16.242H14.82C13.4376 16.242 12.3034 16.4551 11.4174 16.8813C10.5314 17.3075 9.90994 17.8765 9.55312 18.5884C9.53756 18.6195 9.52153 18.6351 9.50503 18.6351C9.48335 18.6351 9.47251 18.6174 9.47251 18.582C9.49803 18.0603 9.57064 17.5415 9.69035 17.0258C9.81005 16.5102 9.99564 16.0244 10.2471 15.5687C10.4986 15.113 10.8274 14.7084 11.2334 14.3549C11.6394 14.0015 12.1367 13.7242 12.7254 13.5231C13.314 13.322 14.0122 13.2215 14.82 13.2215H15.6678C15.8093 13.2215 15.88 13.1529 15.88 13.0156V10.7748C15.88 10.7173 15.9083 10.6886 15.9648 10.6886C15.9846 10.6886 16.0013 10.6922 16.0147 10.6995C16.0281 10.7069 16.0426 10.7157 16.0582 10.7261L20.1491 14.6643C20.1735 14.6888 20.1858 14.7123 20.1858 14.735C20.1858 14.7463 20.183 14.7576 20.1773 14.7689C20.1717 14.7802 20.1622 14.7924 20.1491 14.8056L16.0582 18.6928C16.0271 18.7197 15.9959 18.7331 15.9648 18.7331Z" fill="white"/>
</svg>
