<svg width="30" height="30" viewBox="0 0 30 30" fill="none" xmlns="http://www.w3.org/2000/svg">
<path fill-rule="evenodd" clip-rule="evenodd" d="M9.91652 12.8126C9.40808 11.7975 9.15817 10.9834 9.10043 10.3778C9.04241 9.76932 9.18314 9.46858 9.3265 9.32522C9.46986 9.18186 9.7706 9.04113 10.3791 9.09915C10.9847 9.15689 11.7992 9.40702 12.8143 9.91545L19.1153 13.0659C20.4257 13.7211 20.8429 14.4631 20.8429 15.0001C20.8429 15.5371 20.4257 16.2791 19.1153 16.9343L12.8143 20.0848C11.7972 20.5933 10.9821 20.8433 10.376 20.9011C9.76698 20.9591 9.46681 20.8183 9.32407 20.6753C9.18125 20.5323 9.0408 20.2318 9.09935 19.6229C9.15758 19.0173 9.40814 18.2027 9.91652 17.1876L10.5564 15.9152L10.5571 15.9137C10.5901 15.8477 10.6183 15.7794 10.6422 15.7098H14.1107C14.5027 15.7098 14.8204 15.392 14.8204 15.0001C14.8204 14.6081 14.5027 14.2904 14.1107 14.2904H10.6396C10.6163 14.2233 10.589 14.1575 10.5571 14.0939L9.91652 12.8126ZM10.5139 7.68616C11.3581 7.76666 12.3481 8.09451 13.4491 8.64591L19.7501 11.7964C21.2663 12.5545 22.2623 13.6748 22.2623 15.0001C22.2623 16.3254 21.2663 17.4457 19.7501 18.2038L13.4491 21.3543C12.3463 21.9057 11.3552 22.2336 10.5107 22.3141C9.66922 22.3943 8.87445 22.2338 8.31975 21.6783C7.76512 21.123 7.60561 20.3281 7.68647 19.4871C7.76762 18.643 8.09596 17.653 8.64741 16.552L9.2878 15.2785C9.30579 15.2422 9.33412 15.1438 9.33412 15.0038C9.33412 14.8632 9.30558 14.7646 9.28759 14.7286L8.64741 13.4483C8.09588 12.3471 7.76795 11.3569 7.68745 10.5126C7.60722 9.67121 7.76783 8.87656 8.32284 8.32155C8.87784 7.76655 9.6725 7.60594 10.5139 7.68616Z" fill="#7A8598"/>
</svg>
