<svg width="30" height="30" viewBox="0 0 30 30" fill="none" xmlns="http://www.w3.org/2000/svg">
<path fill-rule="evenodd" clip-rule="evenodd" d="M13.9194 10.3812C13.1854 11.4149 13.3043 12.8274 14.2007 13.7238L14.6109 14.134L14.1334 14.6115L13.7237 14.2018C12.8272 13.3053 11.4148 13.1864 10.3811 13.9204L10.0851 14.1305C9.37138 14.6373 8.74608 15.2583 8.2344 15.9686C7.37166 17.1662 7.50459 18.8126 8.54826 19.8563L10.1438 21.4518C11.1874 22.4955 12.8339 22.6284 14.0315 21.7657C14.7418 21.254 15.3628 20.6287 15.8696 19.9149L16.1004 19.5899C16.8224 18.573 16.7054 17.1835 15.8236 16.3017L15.3886 15.8667L15.8661 15.3892L16.3006 15.8237C17.1825 16.7056 18.572 16.8226 19.5889 16.1005L19.9139 15.8698C20.6277 15.363 21.253 14.7419 21.7647 14.0316C22.6274 12.8341 22.4945 11.1876 21.4508 10.1439L19.8553 8.54842C18.8116 7.50475 17.1651 7.37182 15.9676 8.23456C15.2573 8.74624 14.6363 9.37154 14.1295 10.0853L13.9194 10.3812ZM17.1212 14.134L17.5558 14.5686C17.8254 14.8382 18.2503 14.874 18.5612 14.6532L18.8863 14.4224C19.4409 14.0286 19.9268 13.546 20.3244 12.9941C20.6784 12.5028 20.6238 11.8273 20.1956 11.3991L18.6001 9.80357C18.1719 9.37538 17.4964 9.32084 17.0051 9.6748C16.4532 10.0724 15.9706 10.5583 15.5768 11.113L15.3667 11.4089C15.134 11.7366 15.1717 12.1844 15.4559 12.4687L15.8661 12.8789L16.3305 12.4145C16.6771 12.0679 17.239 12.0679 17.5856 12.4145C17.9322 12.7611 17.9322 13.323 17.5856 13.6696L17.1212 14.134ZM12.8783 15.8667L12.4232 16.3217C12.0766 16.6683 12.0766 17.2303 12.4232 17.5769C12.7698 17.9235 13.3318 17.9235 13.6784 17.5769L14.1334 17.1218L14.5684 17.5568C14.8381 17.8265 14.8738 18.2513 14.6531 18.5623L14.4223 18.8873C14.0285 19.4419 13.5459 19.9278 12.9939 20.3254C12.5026 20.6794 11.8271 20.6249 11.3989 20.1967L9.80341 18.6012C9.37522 18.173 9.32068 17.4975 9.67464 17.0061C10.0722 16.4542 10.5581 15.9716 11.1128 15.5778L11.4087 15.3677C11.7365 15.135 12.1843 15.1727 12.4685 15.4569L12.8783 15.8667Z" fill="white"/>
</svg>
